<svg xmlns="http://www.w3.org/2000/svg" fill-rule="evenodd" stroke-linejoin="round" stroke-miterlimit="2" clip-rule="evenodd" viewBox="0 0 64 64" id="voicerecorder">
  <g transform="translate(-3188 -8)" fill="#ffffff" class="color000000 svgShape">
    <path d="M3217.96,59.92L3218,68.009C3218.01,69.113 3218.91,70.005 3220.01,70C3221.11,69.995 3222.01,69.095 3222,67.991L3221.96,59.934C3223.06,59.857 3224.16,59.714 3225.25,59.505C3233.7,57.954 3239.88,50.595 3239.93,41.98C3239.95,41.086 3239.95,40.086 3239.96,39.014C3239.97,37.91 3239.08,37.008 3237.98,37C3236.87,36.992 3235.97,37.882 3235.96,38.986C3235.95,40.051 3235.95,41.045 3235.93,41.933C3235.93,41.937 3235.93,41.942 3235.93,41.946C3235.9,48.646 3231.09,54.37 3224.52,55.572C3224.52,55.573 3224.51,55.574 3224.51,55.575C3223,55.863 3221.48,56.007 3219.96,56C3218.59,55.994 3217.21,55.86 3215.81,55.664C3215.7,55.648 3215.59,55.631 3215.48,55.611C3208.83,54.395 3204,48.599 3204,41.838L3204,39.001C3204,37.897 3203.11,37 3202,37C3200.9,37 3200,37.896 3200,38.999C3200,40.023 3200,40.98 3200,41.838C3200,50.53 3206.21,57.983 3214.76,59.546C3214.93,59.576 3215.09,59.602 3215.26,59.625C3216.16,59.752 3217.07,59.855 3217.96,59.92ZM3234,22.137C3234,16.309 3229.81,11.323 3224.07,10.316C3223.98,10.299 3223.88,10.284 3223.78,10.272C3222.51,10.113 3221.26,10.002 3220.01,10C3218.64,9.998 3217.27,10.124 3215.9,10.38C3210.24,11.384 3206.09,16.309 3206.07,22.077C3206,27.389 3206,36.52 3206,41.838C3206,47.633 3210.14,52.602 3215.84,53.643C3215.93,53.658 3216.01,53.672 3216.09,53.683C3217.4,53.866 3218.69,53.994 3219.97,54C3221.37,54.006 3222.76,53.873 3224.14,53.608C3229.79,52.584 3233.91,47.669 3233.93,41.919C3234,36.597 3234,27.448 3234,22.137Z" fill="#ffffff" class="color000000 svgShape"></path>
  </g>
</svg>
